<svg xmlns="http://www.w3.org/2000/svg" viewBox="0 0 62.5 41.5"><defs><style>.cls-1{fill:#231f20;}</style></defs><g id="Layer_2" data-name="Layer 2"><g id="Layer_1-2" data-name="Layer 1"><path class="cls-1" d="M5,4A1,1,0,0,0,4,5V36.5a1,1,0,0,0,1,1H57.5a1,1,0,0,0,1-1V5a1,1,0,0,0-1-1ZM5,0H57.5a5,5,0,0,1,5,5V36.5a5,5,0,0,1-5,5H5a5,5,0,0,1-5-5V5A5,5,0,0,1,5,0Z"/><path class="cls-1" d="M8,6.11,26.46,21.63s.16.15.32.28A6.89,6.89,0,0,0,31,23.46a6.8,6.8,0,0,0,4.55-1.83L54.46,5.76A2,2,0,0,1,57,8.83L38.25,24.59a10.57,10.57,0,0,1-14.48,0L5.41,9.18A2,2,0,1,1,8,6.11Z"/></g></g></svg>