<svg xmlns="http://www.w3.org/2000/svg" viewBox="0 0 117.81 117.81"><defs><style>.cls-1{fill:#231f20;fill-rule:evenodd;}.cls-2{fill:none;stroke:#231f20;stroke-miterlimit:3.86;}</style></defs><g id="Layer_2" data-name="Layer 2"><g id="Layer_1-2" data-name="Layer 1"><path class="cls-1" d="M.5,58.91a58.41,58.41,0,1,1,58.41,58.4A58.41,58.41,0,0,1,.5,58.91Zm55,9.33c-2.89,9.42-11,15.74-20.28,14.9-11.42-1-20.36-12.41-20-25.41S25.2,35,36.62,36.06s20.21,12.22,20,25.08L22.6,61c.8,8.28,6.58,14.91,13.59,15.19,5.14.21,9.43-3.16,11.8-8.14ZM49.11,55.07,22.91,55c1.48-7.17,6.87-12.31,13.28-12C42.28,43.19,47.33,48.32,49.11,55.07ZM59.17,36.39h9.54L79.63,51.48,90.56,36.39h9.54L84.4,58.07l17.68,24.41H92.55L79.63,64.65,66.72,82.48H57.19L74.87,58.07Z"/><path class="cls-2" d="M.5,58.91a58.41,58.41,0,1,1,58.41,58.4A58.41,58.41,0,0,1,.5,58.91Zm55,9.33c-2.89,9.42-11,15.74-20.28,14.9-11.42-1-20.36-12.41-20-25.41S25.2,35,36.62,36.06s20.21,12.22,20,25.08L22.6,61c.8,8.28,6.58,14.91,13.59,15.19,5.14.21,9.43-3.16,11.8-8.14ZM49.11,55.07,22.91,55c1.48-7.17,6.87-12.31,13.28-12C42.28,43.19,47.33,48.32,49.11,55.07ZM59.17,36.39h9.54L79.63,51.48,90.56,36.39h9.54L84.4,58.07l17.68,24.41H92.55L79.63,64.65,66.72,82.48H57.19L74.87,58.07Z"/></g></g></svg>