<svg xmlns="http://www.w3.org/2000/svg" viewBox="0 0 71.5 71.5"><defs><style>.cls-1{fill:#fff;}.cls-1,.cls-3{fill-rule:evenodd;}.cls-2{fill:none;stroke:#231f20;stroke-miterlimit:3.86;}.cls-3{fill:#231f20;}</style></defs><g id="Layer_2" data-name="Layer 2"><g id="Layer_1-2" data-name="Layer 1"><path class="cls-1" d="M58.4,41.07l5.1-3.28q-3.22-5.3-10-5.1c-7.21.66-10.52,5.58-8.23,12.53,1.75,5,7.36,5.54,12.45,8.74,2.41,2,.88,5.24-2.62,5.61q-3.87.6-7.21-3.64l-5.31,3q4.19,8,14,6.78c7.28-1.29,10.56-6.85,8.16-13.48-2.92-6-9.69-4.88-12.89-8.59-1.83-2.26-.08-5.68,3.42-5A6.86,6.86,0,0,1,58.4,41.07ZM32.11,33.13H39V56.8c0,10.56-15.59,11.36-20,3.06l5.46-3.35q1.7,4,5.46,3.13s2.41-.51,2.41-3.79S32.11,33.13,32.11,33.13ZM.5.5H71V71H.5Z"/><path class="cls-2" d="M58.4,41.07l5.1-3.28q-3.22-5.3-10-5.1c-7.21.66-10.52,5.58-8.23,12.53,1.75,5,7.36,5.54,12.45,8.74,2.41,2,.88,5.24-2.62,5.61q-3.87.6-7.21-3.64l-5.31,3q4.19,8,14,6.78c7.28-1.29,10.56-6.85,8.16-13.48-2.92-6-9.69-4.88-12.89-8.59-1.83-2.26-.08-5.68,3.42-5A6.86,6.86,0,0,1,58.4,41.07ZM32.11,33.13H39V56.8c0,10.56-15.59,11.36-20,3.06l5.46-3.35q1.7,4,5.46,3.13s2.41-.51,2.41-3.79S32.11,33.13,32.11,33.13ZM.5.5H71V71H.5Z"/><path class="cls-1" d="M32.11,33.13H39V56.8c0,10.56-15.59,11.36-20,3.06l5.46-3.35q1.7,4,5.46,3.13s2.41-.51,2.41-3.79S32.11,33.13,32.11,33.13Z"/><path class="cls-2" d="M32.11,33.13H39V56.8c0,10.56-15.59,11.36-20,3.06l5.46-3.35q1.7,4,5.46,3.13s2.41-.51,2.41-3.79S32.11,33.13,32.11,33.13Z"/><path class="cls-3" d="M32.11,33.13H39V56.8c0,10.56-15.59,11.36-20,3.06l5.46-3.35q1.7,4,5.46,3.13s2.41-.51,2.41-3.79S32.11,33.13,32.11,33.13Z"/><path class="cls-1" d="M58.4,41.07l5.1-3.28q-3.22-5.3-10-5.1c-7.21.66-10.52,5.58-8.23,12.53,1.75,5,7.36,5.54,12.45,8.74,2.41,2,.88,5.24-2.62,5.61q-3.87.6-7.21-3.64l-5.31,3q4.19,8,14,6.78c7.28-1.29,10.56-6.85,8.16-13.48-2.92-6-9.69-4.88-12.89-8.59-1.83-2.26-.08-5.68,3.42-5A6.86,6.86,0,0,1,58.4,41.07Z"/><path class="cls-2" d="M58.4,41.07l5.1-3.28q-3.22-5.3-10-5.1c-7.21.66-10.52,5.58-8.23,12.53,1.75,5,7.36,5.54,12.45,8.74,2.41,2,.88,5.24-2.62,5.61q-3.87.6-7.21-3.64l-5.31,3q4.19,8,14,6.78c7.28-1.29,10.56-6.85,8.16-13.48-2.92-6-9.69-4.88-12.89-8.59-1.83-2.26-.08-5.68,3.42-5A6.86,6.86,0,0,1,58.4,41.07Z"/><path class="cls-3" d="M58.4,41.07l5.1-3.28q-3.22-5.3-10-5.1c-7.21.66-10.52,5.58-8.23,12.53,1.75,5,7.36,5.54,12.45,8.74,2.41,2,.88,5.24-2.62,5.61q-3.87.6-7.21-3.64l-5.31,3q4.19,8,14,6.78c7.28-1.29,10.56-6.85,8.16-13.48-2.92-6-9.69-4.88-12.89-8.59-1.83-2.26-.08-5.68,3.42-5A6.86,6.86,0,0,1,58.4,41.07Z"/></g></g></svg>