<svg xmlns="http://www.w3.org/2000/svg" viewBox="0 0 72.23 80.23"><defs><style>.cls-1,.cls-4{fill:#231f20;}.cls-1,.cls-5{fill-rule:evenodd;}.cls-2{fill:none;stroke:#231f20;stroke-miterlimit:3.86;}.cls-3,.cls-5{fill:#fff;}</style></defs><g id="Layer_2" data-name="Layer 2"><g id="Layer_1-2" data-name="Layer 1"><path class="cls-1" d="M38.71,60.5a3.41,3.41,0,0,0-1,1.87,43,43,0,0,0,0,5.75l-1.38-.37A7.79,7.79,0,0,1,36,65a7.66,7.66,0,0,0-1.25-3.88s-3.13-3-6.38-6.87-6.69-16-3.62-25c3.75-11,10.87-16,11.37-18.75A24,24,0,0,0,41.33,18c3.88,3.87,7.88,13.37,7.38,24C48.33,50,44.71,55.62,38.71,60.5Zm-3.5-54c-10,.23-18.07,2-24.75,4.75a4.5,4.5,0,0,0-2.82,3.44C3.58,42.12,9.85,60.13,36.21,73,62.56,60.13,68.64,42.12,64.57,14.69a4.48,4.48,0,0,0-2.81-3.44C55.08,8.48,47,6.73,37,6.5Z"/><path class="cls-2" d="M38.71,60.5a3.41,3.41,0,0,0-1,1.87,43,43,0,0,0,0,5.75l-1.38-.37A7.79,7.79,0,0,1,36,65a7.66,7.66,0,0,0-1.25-3.88s-3.13-3-6.38-6.87-6.69-16-3.62-25c3.75-11,10.87-16,11.37-18.75A24,24,0,0,0,41.33,18c3.88,3.87,7.88,13.37,7.38,24C48.33,50,44.71,55.62,38.71,60.5Zm-3.5-54c-10,.23-18.07,2-24.75,4.75a4.5,4.5,0,0,0-2.82,3.44C3.58,42.12,9.85,60.13,36.21,73,62.56,60.13,68.64,42.12,64.57,14.69a4.48,4.48,0,0,0-2.81-3.44C55.08,8.48,47,6.73,37,6.5Z"/><path class="cls-2" d="M8.32,5.64C15.75,2.59,24.59.75,35.14.5h1.94C47.62.75,56.47,2.59,63.89,5.64a10.45,10.45,0,0,1,6.62,8.17c4.81,32.46-4.11,51.12-34.3,65.87C6.07,65-3.1,46.3,1.71,13.81A10.46,10.46,0,0,1,8.32,5.64Z"/><path class="cls-3" d="M37.77,60.84a7.23,7.23,0,0,1-1.21-2.4,16.54,16.54,0,0,1-1.26,2.85l-.62-.86a9.26,9.26,0,0,0,.53-1.1,13.25,13.25,0,0,0,.87-3.87c-.33-5.11-.22-15.24-.12-22C36.08,25.13,35.58,9,35.58,9l1,0s.5,16.2.38,24.59-.25,21.7.48,24.36a4.87,4.87,0,0,0,.84,2s.06.09.26.19Z"/><path class="cls-4" d="M37.77,60.84a7.23,7.23,0,0,1-1.21-2.4,16.54,16.54,0,0,1-1.26,2.85l-.62-.86a9.26,9.26,0,0,0,.53-1.1,13.25,13.25,0,0,0,.87-3.87c-.33-5.11-.22-15.24-.12-22C36.08,25.13,35.58,9,35.58,9l1,0s.5,16.2.38,24.59-.25,21.7.48,24.36a4.87,4.87,0,0,0,.84,2s.06.09.26.19Z"/><path class="cls-1" d="M35.21,6.5c-10,.23-18.07,2-24.75,4.75a4.5,4.5,0,0,0-2.82,3.44C3.58,42.12,9.85,60.13,36.21,73,62.56,60.13,68.64,42.12,64.57,14.69a4.48,4.48,0,0,0-2.81-3.44C55.08,8.48,47,6.73,37,6.5ZM8.32,5.64C15.75,2.59,24.59.75,35.14.5h1.94C47.62.75,56.47,2.59,63.89,5.64a10.45,10.45,0,0,1,6.62,8.17c4.81,32.46-4.11,51.12-34.3,65.87C6.07,65-3.1,46.3,1.71,13.81A10.46,10.46,0,0,1,8.32,5.64Z"/><path class="cls-2" d="M35.21,6.5c-10,.23-18.07,2-24.75,4.75a4.5,4.5,0,0,0-2.82,3.44C3.58,42.12,9.85,60.13,36.21,73,62.56,60.13,68.64,42.12,64.57,14.69a4.48,4.48,0,0,0-2.81-3.44C55.08,8.48,47,6.73,37,6.5ZM8.32,5.64C15.75,2.59,24.59.75,35.14.5h1.94C47.62.75,56.47,2.59,63.89,5.64a10.45,10.45,0,0,1,6.62,8.17c4.81,32.46-4.11,51.12-34.3,65.87C6.07,65-3.1,46.3,1.71,13.81A10.46,10.46,0,0,1,8.32,5.64Z"/><path class="cls-5" d="M35.21,6.5c-10,.23-18.07,2-24.75,4.75a4.5,4.5,0,0,0-2.82,3.44C3.58,42.12,9.85,60.13,36.21,73,62.56,60.13,68.64,42.12,64.57,14.69a4.48,4.48,0,0,0-2.81-3.44C55.08,8.48,47,6.73,37,6.5ZM8.32,5.64C15.75,2.59,24.59.75,35.14.5h1.94C47.62.75,56.47,2.59,63.89,5.64a10.45,10.45,0,0,1,6.62,8.17c4.81,32.46-4.11,51.12-34.3,65.87C6.07,65-3.1,46.3,1.71,13.81A10.46,10.46,0,0,1,8.32,5.64Z"/></g></g></svg>