<svg xmlns="http://www.w3.org/2000/svg" viewBox="0 0 89.42 79.28"><defs><style>.cls-1{fill:#231f20;fill-rule:evenodd;}.cls-2{fill:none;stroke:#231f20;stroke-miterlimit:3.86;}</style></defs><g id="Layer_2" data-name="Layer 2"><g id="Layer_1-2" data-name="Layer 1"><path class="cls-1" d="M36.84,40.21A8.19,8.19,0,1,1,45,48.41,8.19,8.19,0,0,1,36.84,40.21ZM47.22,12.92a91.65,91.65,0,0,1,7.51,9,91.46,91.46,0,0,1,12.64,2c2.56-9.82,1.81-17-1.73-19.16S55,5.58,47.22,12.92ZM24.12,39.64A90.46,90.46,0,0,1,19.6,28.29C9.87,31.15,4.07,35.51,4.07,39.64S9.87,48.13,19.6,51A91.07,91.07,0,0,1,24.12,39.64ZM32,53.48c-1-1.46-1.92-3-2.84-4.48q-1.58-2.62-3-5.28A82.62,82.62,0,0,0,23,51.9,81.29,81.29,0,0,0,32,53.48ZM42.2,66.37a93,93,0,0,1-7.51-9,93,93,0,0,1-12.64-2c-2.56,9.81-1.81,17,1.73,19.15S34.46,73.7,42.2,66.37Zm28.61-12c2.85,10.79,2.26,19.77-3.33,23.13C61.71,81,53.16,77,44.71,68.89,36.26,77,27.71,81,21.94,77.54c-5.59-3.36-6.18-12.34-3.33-23.13C7.89,51.29.5,46.16.5,39.64S7.89,28,18.61,24.87C15.76,14.08,16.35,5.11,21.94,1.75c5.77-3.47,14.32.58,22.77,8.65,8.45-8.07,17-12.12,22.77-8.65,5.59,3.36,6.18,12.33,3.33,23.12C81.53,28,88.92,33.12,88.92,39.64S81.53,51.29,70.81,54.41ZM65.3,39.64A91.07,91.07,0,0,1,69.82,51c9.73-2.86,15.53-7.21,15.53-11.35s-5.8-8.49-15.53-11.35A90.46,90.46,0,0,1,65.3,39.64Zm-5-9.36q1.57,2.63,3,5.28a80.77,80.77,0,0,0,3.12-8.18,83.73,83.73,0,0,0-8.94-1.58C58.41,27.26,59.36,28.76,60.28,30.28Zm6.1,21.62a82.62,82.62,0,0,0-3.12-8.18q-1.41,2.66-3,5.28c-.92,1.52-1.87,3-2.84,4.48A81.29,81.29,0,0,0,66.38,51.9ZM47.22,66.37C55,73.7,62,76.67,65.64,74.47s4.29-9.34,1.73-19.15a93,93,0,0,1-12.64,2A93,93,0,0,1,47.22,66.37ZM39.4,57.68C41.17,60,43,62,44.71,63.86,46.47,62,48.25,60,50,57.68c-1.76.08-3.53.13-5.31.13S41.16,57.76,39.4,57.68ZM23,27.38a80.77,80.77,0,0,0,3.12,8.18q1.41-2.66,3-5.28c.92-1.52,1.87-3,2.84-4.48A83.73,83.73,0,0,0,23,27.38ZM42.2,12.92C34.46,5.58,27.43,2.62,23.78,4.81S19.49,14.15,22.05,24a91.46,91.46,0,0,1,12.64-2A91.65,91.65,0,0,1,42.2,12.92ZM50,21.6c-1.77-2.26-3.55-4.33-5.31-6.17C43,17.27,41.17,19.34,39.4,21.6c1.76-.08,3.53-.13,5.31-.13S48.26,21.52,50,21.6Zm7.2,10.53c-1.45-2.41-2.93-4.67-4.42-6.78q-3.88-.3-8.09-.3t-8.09.3c-1.49,2.11-3,4.37-4.42,6.78s-2.91,5.06-4.13,7.51q1.83,3.68,4.13,7.52c1.45,2.4,2.93,4.66,4.42,6.78q3.89.29,8.09.29t8.09-.29c1.49-2.12,3-4.38,4.42-6.78,1.53-2.56,2.91-5.07,4.12-7.52C60.12,37.19,58.75,34.68,57.22,32.13Z"/><path class="cls-2" d="M36.84,40.21A8.19,8.19,0,1,1,45,48.41,8.19,8.19,0,0,1,36.84,40.21ZM47.22,12.92a91.65,91.65,0,0,1,7.51,9,91.46,91.46,0,0,1,12.64,2c2.56-9.82,1.81-17-1.73-19.16S55,5.58,47.22,12.92ZM24.12,39.64A90.46,90.46,0,0,1,19.6,28.29C9.87,31.15,4.07,35.51,4.07,39.64S9.87,48.13,19.6,51A91.07,91.07,0,0,1,24.12,39.64ZM32,53.48c-1-1.46-1.92-3-2.84-4.48q-1.58-2.62-3-5.28A82.62,82.62,0,0,0,23,51.9,81.29,81.29,0,0,0,32,53.48ZM42.2,66.37a93,93,0,0,1-7.51-9,93,93,0,0,1-12.64-2c-2.56,9.81-1.81,17,1.73,19.15S34.46,73.7,42.2,66.37Zm28.61-12c2.85,10.79,2.26,19.77-3.33,23.13C61.71,81,53.16,77,44.71,68.89,36.26,77,27.71,81,21.94,77.54c-5.59-3.36-6.18-12.34-3.33-23.13C7.89,51.29.5,46.16.5,39.64S7.89,28,18.61,24.87C15.76,14.08,16.35,5.11,21.94,1.75c5.77-3.47,14.32.58,22.77,8.65,8.45-8.07,17-12.12,22.77-8.65,5.59,3.36,6.18,12.33,3.33,23.12C81.53,28,88.92,33.12,88.92,39.64S81.53,51.29,70.81,54.41ZM65.3,39.64A91.07,91.07,0,0,1,69.82,51c9.73-2.86,15.53-7.21,15.53-11.35s-5.8-8.49-15.53-11.35A90.46,90.46,0,0,1,65.3,39.64Zm-5-9.36q1.57,2.63,3,5.28a80.77,80.77,0,0,0,3.12-8.18,83.73,83.73,0,0,0-8.94-1.58C58.41,27.26,59.36,28.76,60.28,30.28Zm6.1,21.62a82.62,82.62,0,0,0-3.12-8.18q-1.41,2.66-3,5.28c-.92,1.52-1.87,3-2.84,4.48A81.29,81.29,0,0,0,66.38,51.9ZM47.22,66.37C55,73.7,62,76.67,65.64,74.47s4.29-9.34,1.73-19.15a93,93,0,0,1-12.64,2A93,93,0,0,1,47.22,66.37ZM39.4,57.68C41.17,60,43,62,44.71,63.86,46.47,62,48.25,60,50,57.68c-1.76.08-3.53.13-5.31.13S41.16,57.76,39.4,57.68ZM23,27.38a80.77,80.77,0,0,0,3.12,8.18q1.41-2.66,3-5.28c.92-1.52,1.87-3,2.84-4.48A83.73,83.73,0,0,0,23,27.38ZM42.2,12.92C34.46,5.58,27.43,2.62,23.78,4.81S19.49,14.15,22.05,24a91.46,91.46,0,0,1,12.64-2A91.65,91.65,0,0,1,42.2,12.92ZM50,21.6c-1.77-2.26-3.55-4.33-5.31-6.17C43,17.27,41.17,19.34,39.4,21.6c1.76-.08,3.53-.13,5.31-.13S48.26,21.52,50,21.6Zm7.2,10.53c-1.45-2.41-2.93-4.67-4.42-6.78q-3.88-.3-8.09-.3t-8.09.3c-1.49,2.11-3,4.37-4.42,6.78s-2.91,5.06-4.13,7.51q1.83,3.68,4.13,7.52c1.45,2.4,2.93,4.66,4.42,6.78q3.89.29,8.09.29t8.09-.29c1.49-2.12,3-4.38,4.42-6.78,1.53-2.56,2.91-5.07,4.12-7.52C60.12,37.19,58.75,34.68,57.22,32.13Z"/></g></g></svg>