<svg xmlns="http://www.w3.org/2000/svg" viewBox="0 0 236.56 231.58"><defs><style>.cls-1{fill:#231f20;fill-rule:evenodd;}.cls-2{fill:none;stroke:#231f20;stroke-miterlimit:3.86;}</style></defs><g id="Layer_2" data-name="Layer 2"><g id="Layer_1-2" data-name="Layer 1"><path class="cls-1" d="M83.69,230.9a117.77,117.77,0,1,1,71.07-.59v-36c0-12.75-3.34-17.75-3.34-17.75,44.5-13.5,48.68-35.46,50-60.5,1.25-23.75-11.25-38-11.25-38s3.25-31-3.75-36c-9.84-7-38,10-38,10s-16-3-27.5-3H117c-11.5,0-27.5,3-27.5,3s-28.16-17-38-10c-7,5-3.75,36-3.75,36s-12.5,14.25-11.25,38c1.31,25,6.25,47,50.75,60.5,0,0-1.7,2.42-2.73,8.2q-17.18,8.38-28-9.45Q46.07,163.9,38,163.06c-9.75-.75-16.65,3-14,9.5l11.25,11.5c13.5,13.75,2.75,24.5,35,31,0,0,8.75.6,13.5.6Z"/><path class="cls-2" d="M83.69,230.9a117.77,117.77,0,1,1,71.07-.59v-36c0-12.75-3.34-17.75-3.34-17.75,44.5-13.5,48.68-35.46,50-60.5,1.25-23.75-11.25-38-11.25-38s3.25-31-3.75-36c-9.84-7-38,10-38,10s-16-3-27.5-3H117c-11.5,0-27.5,3-27.5,3s-28.16-17-38-10c-7,5-3.75,36-3.75,36s-12.5,14.25-11.25,38c1.31,25,6.25,47,50.75,60.5,0,0-1.7,2.42-2.73,8.2q-17.18,8.38-28-9.45Q46.07,163.9,38,163.06c-9.75-.75-16.65,3-14,9.5l11.25,11.5c13.5,13.75,2.75,24.5,35,31,0,0,8.75.6,13.5.6Z"/></g></g></svg>