<svg xmlns="http://www.w3.org/2000/svg" viewBox="0 0 98.07 23.99"><defs><style>.cls-1{fill:none;stroke:#231f20;stroke-miterlimit:3.86;}</style></defs><g id="Layer_2" data-name="Layer 2"><g id="Layer_1-2" data-name="Layer 1"><path class="cls-1" d="M48.84,7.52S52.86-1,64.92.74C75.2,2.24,80.74,14.55,87,14.55c3.76,0,5.77-5.4,2.76-6.15s-2.7,1.76-2.7,2.38c-1.19-.37-3.58-6.9,4-6.9,9.16,0,9.16,17.7-3.08,19.27-17.52,2.45-26.56-9.35-39-9.48-12.5.13-21.28,11.93-38.8,9.48C-2.13,21.58-2.13,3.88,7,3.88c7.54,0,5.15,6.53,4,6.9,0-.62.31-3.14-2.7-2.38s-1,6.15,2.76,6.15c6.28,0,11.82-12.31,22.1-13.81C45.2-1,49.22,7.52,49.22,7.52Z"/></g></g></svg>