<svg xmlns="http://www.w3.org/2000/svg" viewBox="0 0 70.81 79.36"><defs><style>.cls-1{fill:#fff;fill-rule:evenodd;}.cls-2{fill:none;stroke:#231f20;stroke-miterlimit:3.86;}</style></defs><g id="Layer_2" data-name="Layer 2"><g id="Layer_1-2" data-name="Layer 1"><path class="cls-1" d="M70.26.5l-6.7,70.43L35.29,78.84l-28-7.91L.55.5ZM56.45,23.7H23l.74,8.72,32-.05L53.2,59.43l-17.87,5-17.72-5L13.37,14.91H57.44ZM46.32,41.23,45.42,52,35.36,54.79,25.4,52l-.91-10.8Z"/><path class="cls-2" d="M70.26.5l-6.7,70.43L35.29,78.84l-28-7.91L.55.5ZM56.45,23.7H23l.74,8.72,32-.05L53.2,59.43l-17.87,5-17.72-5L13.37,14.91H57.44ZM46.32,41.23,45.42,52,35.36,54.79,25.4,52l-.91-10.8Z"/></g></g></svg>