<svg xmlns="http://www.w3.org/2000/svg" viewBox="0 0 53.02 61.22"><defs><style>.cls-1,.cls-2{fill:#231f20;}.cls-1{fill-rule:evenodd;}</style></defs><g id="Layer_2" data-name="Layer 2"><g id="Layer_1-2" data-name="Layer 1"><path class="cls-1" d="M22,34.61l4.25.19a6,6,0,0,0,2.41,3.74,7.88,7.88,0,0,0,4.74,1.24A7.59,7.59,0,0,0,38,38.68a3.17,3.17,0,0,0,1.49-2.59A2.33,2.33,0,0,0,38.12,34a21.4,21.4,0,0,0-4.56-1.34,46,46,0,0,1-6.77-1.89,6.36,6.36,0,0,1-2.86-2.21,5.34,5.34,0,0,1-1-3.11,5.39,5.39,0,0,1,.81-2.87,6.64,6.64,0,0,1,2.18-2.2,9.91,9.91,0,0,1,2.83-1.15,15.17,15.17,0,0,1,3.83-.47,16.77,16.77,0,0,1,5.42.8,7.32,7.32,0,0,1,3.44,2.14c.74.9,1.36,2.61,1.78,5.36l-4.35.54c-.2-1.21-1-3.91-2-4.59a6.79,6.79,0,0,0-4-1,8,8,0,0,0-4.36.9,2.55,2.55,0,0,0-1.3,2.1,2,2,0,0,0,.54,1.38,4,4,0,0,0,1.7,1.05c.44.15,1.75.48,3.92,1A61.77,61.77,0,0,1,40,30.24a6.62,6.62,0,0,1,2.94,2.07A5.26,5.26,0,0,1,44,35.67a6.14,6.14,0,0,1-1.3,3.71A8.33,8.33,0,0,1,39,42.06a15.08,15.08,0,0,1-5.54.95q-5.12,0-7.8-1.87C23.83,39.88,22.51,37.07,22,34.61Z"/><path class="cls-2" d="M20.14,19.86V43.11c0,6-7.15,9.32-12.2,7.38L0,45.92V15.31L13.26,7.65,26.51,0,39.77,7.65,53,15.31V45.92L39.77,53.57,26.51,61.22,17,55.7q3.19-.93,3.87-2.4l5.69,3.31,11.26-6.5L49,43.61v-26l-11.25-6.5L26.51,4.62l-11.25,6.5L4,17.62v26l5.65,3.25a4.93,4.93,0,0,0,6.49-3.75V19.86Z"/></g></g></svg>