<svg xmlns="http://www.w3.org/2000/svg" viewBox="0 0 112.5 137"><defs><style>.cls-1,.cls-3{fill:#231f20;}.cls-2{fill:none;stroke:#231f20;stroke-miterlimit:3.86;}.cls-3{fill-rule:evenodd;}</style></defs><g id="Layer_2" data-name="Layer 2"><g id="Layer_1-2" data-name="Layer 1"><circle class="cls-1" cx="57.75" cy="30.5" r="8.75"/><circle class="cls-2" cx="57.75" cy="30.5" r="8.75"/><polygon class="cls-3" points="35.63 65.88 35.63 51.13 50.75 41.38 56.88 58.75 57.88 58.75 64 41.38 79.13 51.13 79.13 65.88 35.63 65.88"/><polygon class="cls-2" points="35.63 65.88 35.63 51.13 50.75 41.38 56.88 58.75 57.88 58.75 64 41.38 79.13 51.13 79.13 65.88 35.63 65.88"/><path class="cls-1" d="M15,117H70.5a2,2,0,1,1,0,4H15A2,2,0,1,1,15,117Zm0-13.33H99a2,2,0,1,1,0,4H15A2,2,0,1,1,15,103.67Zm0-13.34H99a2,2,0,1,1,0,4H15A2,2,0,1,1,15,90.33ZM15,77H99a2,2,0,1,1,0,4H15A2,2,0,1,1,15,77ZM30.18,4.5V22.85a7,7,0,0,1-7,7H4.65L4.5,129.5a3,3,0,0,0,3,3H105a3,3,0,0,0,3-3V7.5a3,3,0,0,0-3-3ZM.66,28.67A2.21,2.21,0,0,1,.66,27a1.84,1.84,0,0,1,1-1L26.5,1.35A1.9,1.9,0,0,1,27,.84L27.36.5H105a7,7,0,0,1,7,7v122a7,7,0,0,1-7,7H7.5a7,7,0,0,1-7-7ZM7.5,25.85H23.18a3,3,0,0,0,3-3V7.3Z"/><path class="cls-2" d="M15,117H70.5a2,2,0,1,1,0,4H15A2,2,0,1,1,15,117Zm0-13.33H99a2,2,0,1,1,0,4H15A2,2,0,1,1,15,103.67Zm0-13.34H99a2,2,0,1,1,0,4H15A2,2,0,1,1,15,90.33ZM15,77H99a2,2,0,1,1,0,4H15A2,2,0,1,1,15,77ZM30.18,4.5V22.85a7,7,0,0,1-7,7H4.65L4.5,129.5a3,3,0,0,0,3,3H105a3,3,0,0,0,3-3V7.5a3,3,0,0,0-3-3ZM.66,28.67A2.21,2.21,0,0,1,.66,27a1.84,1.84,0,0,1,1-1L26.5,1.35A1.9,1.9,0,0,1,27,.84L27.36.5H105a7,7,0,0,1,7,7v122a7,7,0,0,1-7,7H7.5a7,7,0,0,1-7-7ZM7.5,25.85H23.18a3,3,0,0,0,3-3V7.3Z"/></g></g></svg>