<svg xmlns="http://www.w3.org/2000/svg" viewBox="0 0 177.55 177.55"><defs><style>.cls-1{fill:#231f20;fill-rule:evenodd;}.cls-2{fill:none;stroke:#231f20;stroke-miterlimit:3.86;}</style></defs><g id="Layer_2" data-name="Layer 2"><g id="Layer_1-2" data-name="Layer 1"><path class="cls-1" d="M.5,13.5a13,13,0,0,1,13-13H164.05a13,13,0,0,1,13,13V164.05a13,13,0,0,1-13,13H13.5a13,13,0,0,1-13-13ZM24.05,39.3A15.75,15.75,0,1,1,39.8,55.05,15.75,15.75,0,0,1,24.05,39.3Zm2,26.75h27v84h-27Zm69.87,12c11.5-21,54.5-19.13,55.5,18.62l.13,53.38h-27V106.17c0-11.75-3.75-19.12-14.5-19.12-8,0-12.49,4.63-14,13.88,0,21.06,0,49.12,0,49.12h-27v-84h27Z"/><path class="cls-2" d="M.5,13.5a13,13,0,0,1,13-13H164.05a13,13,0,0,1,13,13V164.05a13,13,0,0,1-13,13H13.5a13,13,0,0,1-13-13ZM24.05,39.3A15.75,15.75,0,1,1,39.8,55.05,15.75,15.75,0,0,1,24.05,39.3Zm2,26.75h27v84h-27Zm69.87,12c11.5-21,54.5-19.13,55.5,18.62l.13,53.38h-27V106.17c0-11.75-3.75-19.12-14.5-19.12-8,0-12.49,4.63-14,13.88,0,21.06,0,49.12,0,49.12h-27v-84h27Z"/></g></g></svg>